<?xml version="1.0" standalone="no"?><!DOCTYPE svg PUBLIC "-//W3C//DTD SVG 1.1//EN" "http://www.w3.org/Graphics/SVG/1.1/DTD/svg11.dtd"><svg t="1515236847919" class="icon" style="" viewBox="0 0 1024 1024" version="1.1" xmlns="http://www.w3.org/2000/svg" p-id="7943" xmlns:xlink="http://www.w3.org/1999/xlink" width="200" height="200"><defs><style type="text/css"></style></defs><path d="M512 512m-512 0a512 512 0 1 0 1024 0 512 512 0 1 0-1024 0Z" fill="#D3D1D1" p-id="7944"></path><path d="M115.2 564a268 200 90 1 0 400 0 268 200 90 1 0-400 0Z" fill="#F74541" p-id="7945"></path><path d="M315.2 760c-101.6 0-184.8-100.8-198.4-232-0.8 12-1.6 24-1.6 36 0 148 89.6 268 200 268s200-120 200-268c0-12-0.8-24-1.6-36-13.6 131.2-96.8 232-198.4 232z" fill="#E8372E" p-id="7946"></path><path d="M312.8 296h-2.4c-24 44-37.6 97.6-37.6 156C272 600 362.4 720 474.4 720h2.4c24-44 37.6-97.6 37.6-156C515.2 416 424 296 312.8 296z" fill="#E8372E" p-id="7947"></path><path d="M313.6 840C197.6 840 104 716 104 564S197.6 288 313.6 288s209.6 124 209.6 276S428.8 840 313.6 840z m0-536C207.2 304 120 420.8 120 564S207.2 824 313.6 824s193.6-116.8 193.6-260S420 304 313.6 304z" fill="#663210" p-id="7948"></path><path d="M355.2 396a268 200 90 1 0 400 0 268 200 90 1 0-400 0Z" fill="#FBD000" p-id="7949"></path><path d="M555.2 592c-101.6 0-184.8-100.8-198.4-232-0.8 12-1.6 24-1.6 36C355.2 544 444.8 664 555.2 664s200-120 200-268c0-12-0.8-24-1.6-36-13.6 131.2-96.8 232-198.4 232z" fill="#F4B10B" p-id="7950"></path><path d="M544.8 512c0 56.8 15.2 108.8 40.8 148.8 96-19.2 169.6-130.4 169.6-264.8 0-40.8-7.2-80-19.2-114.4-5.6-0.8-12-1.6-17.6-1.6-96 0-173.6 104-173.6 232z" fill="#F4B10B" p-id="7951"></path><path d="M552 672c-114.4 0-208-124-208-276S437.6 120 552 120s208 124 208 276S666.4 672 552 672z m0-536c-105.6 0-192 116.8-192 260S446.4 656 552 656s192-116.8 192-260S657.6 136 552 136z" fill="#663210" p-id="7952"></path><path d="M592.8 512a232 172.8 90 1 0 345.6 0 232 172.8 90 1 0-345.6 0Z" fill="#92C438" p-id="7953"></path><path d="M765.6 664C680 664 609.6 580.8 595.2 472c-1.6 12.8-2.4 26.4-2.4 40 0 128 77.6 232 172.8 232s172.8-104 172.8-232c0-13.6-0.8-27.2-2.4-40-13.6 108.8-84.8 192-170.4 192z" fill="#7EA824" p-id="7954"></path><path d="M768 752c-101.6 0-184-108-184-240s82.4-240 184-240 184 108 184 240-82.4 240-184 240z m0-464c-92.8 0-168 100.8-168 224s75.2 224 168 224 168-100.8 168-224-75.2-224-168-224z" fill="#663210" p-id="7955"></path><path d="M664 256c-2.4 0-5.6-1.6-7.2-4-7.2-11.2-14.4-21.6-22.4-30.4-3.2-3.2-2.4-8 0.8-11.2 3.2-3.2 8.8-2.4 11.2 0.8 8.8 9.6 17.6 20.8 24.8 33.6 2.4 4 0.8 8.8-3.2 11.2H664zM400 400c-4 0-8-3.2-8-8 0-128 72.8-232 161.6-232 20 0 40 4.8 58.4 15.2 4 2.4 4.8 7.2 3.2 10.4-2.4 4-6.4 5.6-10.4 3.2-16-8.8-33.6-13.6-50.4-13.6C473.6 175.2 408 272 408 391.2c-0.8 5.6-4 8.8-8 8.8zM904.8 520c-4 0-7.2-4-7.2-8 0-10.4-0.8-20.8-1.6-30.4-0.8-4.8 2.4-8.8 6.4-8.8 4-0.8 7.2 2.4 8 7.2 0.8 10.4 1.6 21.6 1.6 32.8 0 3.2-3.2 7.2-7.2 7.2zM896 456c-3.2 0-6.4-2.4-8-6.4-8.8-36.8-24.8-68.8-46.4-92-3.2-3.2-3.2-8 0-11.2 3.2-3.2 8-3.2 11.2 0 23.2 25.6 40.8 60 50.4 100 0.8 4-1.6 8.8-5.6 9.6h-1.6zM624 520c-4 0-8-3.2-8-8 0-114.4 66.4-208 147.2-208 19.2 0 38.4 5.6 56.8 16 4 2.4 4.8 7.2 3.2 11.2-2.4 4-7.2 4.8-11.2 3.2-15.2-8.8-32-13.6-48.8-13.6C691.2 320 632 406.4 632 512c0 4.8-4 8-8 8zM224 376.8c-2.4 0-4-0.8-5.6-2.4-3.2-3.2-2.4-8 0.8-11.2 14.4-12.8 29.6-22.4 45.6-29.6 4-1.6 8.8 0 10.4 4 1.6 4 0 8.8-4 10.4-14.4 5.6-28 15.2-40.8 26.4-3.2 1.6-4.8 2.4-6.4 2.4zM147.2 572c-4.8 0-8-3.2-8-8 0-60.8 16.8-119.2 46.4-164 2.4-4 7.2-4.8 11.2-2.4 4 2.4 4.8 7.2 2.4 11.2-28 42.4-44 96.8-44 154.4 0 5.6-4 8.8-8 8.8z" fill="#FFFFFF" p-id="7956"></path><path d="M731.2 808l40-64 40 64z" fill="#92C438" p-id="7957"></path><path d="M815.2 816H728.8c-3.2 0-6.4-1.6-7.2-4-1.6-2.4-1.6-5.6 0-8l43.2-64c3.2-4.8 11.2-4.8 14.4 0l42.4 63.2c1.6 1.6 2.4 3.2 2.4 5.6 0 4-4 7.2-8.8 7.2z m-71.2-16h55.2l-28-40.8L744 800z" fill="#663210" p-id="7958"></path><path d="M275.2 896l40-64 40 64z" fill="#F74541" p-id="7959"></path><path d="M352 904H272c-3.2 0-5.6-1.6-7.2-4-1.6-2.4-1.6-5.6 0-8l40-64c3.2-4.8 10.4-4.8 13.6 0l39.2 63.2c1.6 1.6 2.4 3.2 2.4 5.6 0 4-3.2 7.2-8 7.2z m-65.6-16h51.2l-25.6-40.8-25.6 40.8z" fill="#663210" p-id="7960"></path><path d="M515.2 728l40-64 40 64z" fill="#FBD000" p-id="7961"></path><path d="M600 736H520c-3.2 0-5.6-1.6-7.2-4-1.6-2.4-1.6-5.6 0-8l40-64c3.2-4.8 10.4-4.8 13.6 0l39.2 63.2c1.6 1.6 2.4 3.2 2.4 5.6 0 4-3.2 7.2-8 7.2z m-65.6-16h51.2L560 679.2 534.4 720z" fill="#663210" p-id="7962"></path><path d="M570.4 968c-3.2 0-5.6-1.6-7.2-4-28-44.8-25.6-88 8.8-136.8 8-12 12-24 12-35.2 0-32-20-59.2-20.8-59.2-2.4-4-1.6-8.8 1.6-11.2 4-2.4 8.8-1.6 12 1.6 1.6 2.4 44.8 60.8 8.8 112.8-16.8 24-25.6 46.4-25.6 67.2 0 17.6 6.4 34.4 17.6 52 2.4 4 0.8 8.8-3.2 11.2-1.6 1.6-2.4 1.6-4 1.6zM781.6 1016c-1.6 0-3.2-0.8-4.8-1.6-4-2.4-4.8-7.2-2.4-11.2 30.4-45.6 13.6-106.4-8-134.4-27.2-36-8.8-64-8-65.6 2.4-4 7.2-4.8 11.2-2.4 4 2.4 4.8 7.2 2.4 11.2-0.8 0.8-12.8 20 8 47.2 28.8 37.6 41.6 104 8 153.6-0.8 1.6-4 3.2-6.4 3.2zM264 1024c-3.2 0-6.4-2.4-8-5.6-1.6-4 1.6-8.8 5.6-9.6 48.8-14.4 42.4-102.4 41.6-104 0-4.8 3.2-8 7.2-8.8 4-0.8 8 3.2 8.8 7.2 0 4 8 102.4-53.6 120 0 0.8-0.8 0.8-1.6 0.8z" fill="#663210" p-id="7963"></path><path d="M472 912c-17.6 0-32-14.4-32-32s14.4-32 32-32 32 14.4 32 32-14.4 32-32 32z m0-48.8c-9.6 0-16.8 8-16.8 16.8 0 9.6 8 16.8 16.8 16.8 9.6 0 16.8-8 16.8-16.8 0-9.6-7.2-16.8-16.8-16.8zM168 296c-17.6 0-32-14.4-32-32s14.4-32 32-32 32 14.4 32 32-14.4 32-32 32z m0-48.8c-9.6 0-16.8 8-16.8 16.8 0 9.6 8 16.8 16.8 16.8 9.6 0 16.8-8 16.8-16.8 0-9.6-7.2-16.8-16.8-16.8zM800 216c-17.6 0-32-14.4-32-32s14.4-32 32-32 32 14.4 32 32-14.4 32-32 32z m0-48.8c-9.6 0-16.8 8-16.8 16.8 0 9.6 8 16.8 16.8 16.8 9.6 0 16.8-8 16.8-16.8 0-9.6-7.2-16.8-16.8-16.8zM379.2 159.2c0-3.2-3.2-6.4-8-7.2l-15.2-2.4c-4-0.8-8.8-4.8-8.8-8.8l-2.4-15.2c-0.8-4-4-8-7.2-8s-6.4 3.2-7.2 8l-2.4 15.2c-0.8 4-4.8 8.8-8.8 8.8l-14.4 2.4c-4 0.8-8 4-8 7.2s3.2 6.4 8 7.2l15.2 1.6c4 0.8 8.8 4.8 8.8 8.8l2.4 15.2c0.8 4 4 8 7.2 8s6.4-3.2 7.2-8l2.4-16.8c0.8-4 4.8-8 8.8-8.8l14.4-0.8c4-0.8 8-3.2 8-6.4zM716.8 864.8c0-3.2-3.2-6.4-8-7.2l-15.2-2.4c-4-0.8-8.8-4.8-8.8-8.8l-2.4-15.2c-0.8-4-4-8-7.2-8s-6.4 3.2-7.2 8l-2.4 15.2c-0.8 4-4.8 8.8-8.8 8.8l-15.2 2.4c-4 0.8-8 4-8 7.2s3.2 6.4 8 7.2l15.2 2.4c4 0.8 8.8 4.8 8.8 8.8l2.4 15.2c0.8 4 4 8 7.2 8s6.4-3.2 7.2-8l2.4-16.8c0.8-4 4.8-8 8.8-8.8l14.4-0.8c5.6-0.8 8.8-4 8.8-7.2z" fill="#FFFFFF" p-id="7964"></path></svg>