<?xml version="1.0" standalone="no"?><!DOCTYPE svg PUBLIC "-//W3C//DTD SVG 1.1//EN" "http://www.w3.org/Graphics/SVG/1.1/DTD/svg11.dtd"><svg t="1515228842828" class="icon" style="" viewBox="0 0 1024 1024" version="1.1" xmlns="http://www.w3.org/2000/svg" p-id="1383" xmlns:xlink="http://www.w3.org/1999/xlink" width="200" height="200"><defs><style type="text/css"></style></defs><path d="M492.5 64.2h48.1v136.5h-48.1z" fill="#FFD05A" p-id="1384"></path><path d="M516.6 64.2h24.1v136.5h-24.1z" fill="#F7B141" p-id="1385"></path><path d="M515.6 919m-93.6 0a93.6 93.6 0 1 0 187.2 0 93.6 93.6 0 1 0-187.2 0Z" fill="#F7B141" p-id="1386"></path><path d="M515.6 1017.4c-54.2 0-98.4-44.1-98.4-98.4s44.1-98.4 98.4-98.4S614 864.7 614 919s-44.2 98.4-98.4 98.4z m0-187.2c-48.9 0-88.8 39.8-88.8 88.8 0 48.9 39.8 88.8 88.8 88.8s88.8-39.8 88.8-88.8c-0.1-49-39.9-88.8-88.8-88.8z" fill="#E8AA2E" p-id="1387"></path><path d="M875.9 799.3h-22c5.7-40.4 9.6-81.9 9.6-125.1 0-202.3-65.6-379.3-163.8-478.4-21.1-21.3-49.4-32.3-78.2-32.3H415.7c-28.8 0-57.1 10.9-78.2 32.3-98.3 99.1-163.8 276.1-163.8 478.4 0 43.2 3.9 84.7 9.6 125.1h-22c-21.7 0-39.3 19.1-39.3 42.7v26.5c0 15.5 11.6 28.1 25.8 28.1h741.6c14.3 0 25.8-12.6 25.8-28.1V842c0-23.6-17.6-42.7-39.3-42.7z" fill="#F7B141" p-id="1388"></path><path d="M889.4 901.4H147.8c-16.9 0-30.6-14.8-30.6-32.9V842c0-26.2 19.8-47.5 44.1-47.5h16.5c-6-43.6-8.9-83-8.9-120.2 0-197.4 61.8-377.5 165.2-481.8 21.6-21.7 50.6-33.7 81.6-33.7h205.7c31.1 0 60.1 12 81.6 33.7C806.5 296.9 868.3 477 868.3 674.3c0 37.5-2.8 75.8-8.9 120.2H876c24.3 0 44.1 21.3 44.1 47.5v26.5c-0.1 18.1-13.9 32.9-30.7 32.9z m-728.1-97.3c-19 0-34.4 17-34.4 37.9v26.5c0 12.8 9.4 23.3 21 23.3h741.5c11.6 0 21-10.5 21-23.3V842c0-20.9-15.5-37.9-34.4-37.9h-27.6l0.8-5.5c6.5-46.3 9.5-85.8 9.5-124.4 0-194.9-60.7-372.5-162.5-475-19.7-19.9-46.3-30.8-74.8-30.8H415.8c-28.5 0-55.1 10.9-74.8 30.8-101.7 102.6-162.4 280.2-162.4 475 0 38.3 3.1 79 9.5 124.4l0.8 5.5h-27.6z" fill="#E8AA2E" p-id="1389"></path><path d="M762.5 804.7c-2.7-3.7-3.7-8-3.1-12.4 5-38.2 8.4-77.4 8.4-118.1 0-202.3-63.7-379.3-159.1-478.4-20.5-21.3-48-32.3-76-32.3H407.3c-28 0-55.4 10.9-76 32.3-95.4 99.1-159.1 276.1-159.1 478.4 0 43.2 3.8 84.7 9.3 125.1h-21.4c-21.1 0-38.1 19.1-38.1 42.7v26.5c0 15.5 11.2 28.1 25.1 28.1h659.7c43.1-11.1-29.3-71.3-44.3-91.9z" fill="#FFD05A" p-id="1390"></path><path d="M515.6 49.5m-38.4 0a38.4 38.4 0 1 0 76.8 0 38.4 38.4 0 1 0-76.8 0Z" fill="#F7B141" p-id="1391"></path><path d="M515.6 92.7c-23.9 0-43.3-19.4-43.3-43.2 0-23.9 19.4-43.3 43.3-43.3 23.8 0 43.2 19.4 43.2 43.3 0 23.8-19.4 43.2-43.2 43.2z m0-76.9C497 15.8 482 30.9 482 49.5c0 18.5 15.1 33.6 33.6 33.6s33.6-15.1 33.6-33.6c0-18.6-15.1-33.7-33.6-33.7z" fill="#E8AA2E" p-id="1392"></path><path d="M408.6 899.4h214.3v34.9H408.6z" fill="#E2A042" p-id="1393"></path><path d="M307.7 727.1c-9.4 0-17.6-6.9-19-16.4-8.5-57.6-10.9-118.1-7.1-179.9 4.2-68 15.5-133 33.6-193.4 3-10.2 13.8-16 23.9-12.9 10.2 3 16 13.8 12.9 23.9-17.3 57.5-28 119.7-32.1 184.7-3.6 59.2-1.4 117 6.7 171.9 1.5 10.5-5.7 20.3-16.2 21.8-0.8 0.2-1.7 0.3-2.7 0.3z" fill="#FFFFFF" p-id="1394"></path><path d="M547.2 162.5l-227-82.3c-27.5-10-56.6 10.4-56.6 39.7v87.3c0 29.3 29.1 49.7 56.6 39.7l227-82.3c1-0.4 1-1.7 0-2.1z" fill="#F44545" p-id="1395"></path><path d="M306.1 254.1c-9.5 0-18.9-2.9-27.1-8.7-12.9-9-20.2-23.2-20.2-38.8v-86.1c0-15.7 7.4-29.8 20.2-38.8 12.8-9.1 28.6-11.2 43.4-5.8l118.8 43c19 6.9 31.3 24.4 31.3 44.6s-12.3 37.7-31.3 44.6l-118.8 43c-5.4 2-10.9 3-16.3 3z m0-171.5c-7.6 0-15.1 2.3-21.6 6.9-10.3 7.2-16.1 18.5-16.1 31v86.1c0 12.5 5.9 23.8 16.1 31 10.2 7.1 22.8 8.9 34.5 4.6l118.8-43c18.4-6.7 25-22.7 25-35.6 0-12.8-6.6-28.9-25-35.6L319 85c-4.2-1.6-8.6-2.4-12.9-2.4z" fill="#E24242" p-id="1396"></path><path d="M390.9 148.2l-114.6-27.1c-6.4-1.5-12.7 2.5-12.7 8.1l4.4 34.4c0 5.6 6.3 9.6 12.7 8.1l110.2-7.3c9.7-2.3 9.7-13.9 0-16.2z" fill="#E24242" p-id="1397"></path><path d="M490 162.5l227-82.3c27.5-10 56.6 10.4 56.6 39.7v87.3c0 29.3-29.1 49.7-56.6 39.7l-227-82.3c-1-0.4-1-1.7 0-2.1z" fill="#F44545" p-id="1398"></path><path d="M731.1 254.1c-5.5 0-10.9-1-16.3-2.9l-118.8-43c-19-6.9-31.3-24.4-31.3-44.6S577 125.9 596 119l118.8-43c14.8-5.4 30.6-3.3 43.4 5.8 12.9 9 20.2 23.2 20.2 38.8v86.1c0 15.7-7.4 29.8-20.2 38.8-8.1 5.7-17.5 8.6-27.1 8.6z m0-171.5c-4.3 0-8.7 0.8-13 2.3l-118.8 43c-18.4 6.7-25 22.7-25 35.6 0 12.8 6.6 28.9 25 35.6l118.8 43c11.8 4.3 24.4 2.5 34.5-4.6 10.3-7.2 16.1-18.5 16.1-31v-86.1c0-12.5-5.9-23.8-16.1-31-6.4-4.4-13.9-6.8-21.5-6.8z" fill="#E24242" p-id="1399"></path><path d="M646.3 148.2l114.6-27.1c6.4-1.5 12.7 2.5 12.7 8.1l-4.4 34.4c0 5.6-6.3 9.6-12.7 8.1l-110.2-7.3c-9.7-2.3-9.7-13.9 0-16.2z" fill="#E24242" p-id="1400"></path><path d="M617.5 135.2c-26.4-19.3-63.3-41.3-94.3-41.3-34.8 0-77.1 27.8-103.5 48.3V185c26.4 20.5 68.7 48.3 103.5 48.3 31 0 67.9-22 94.3-41.3v-56.8z" fill="#F44545" p-id="1401"></path><path d="M523.2 238.1c-35.5 0-77.5-26.8-106.5-49.3l-1.8-1.4v-47.6l1.9-1.4c29-22.5 71-49.3 106.5-49.3 32.6 0 70.8 23 97.1 42.3l2 1.4v61.7l-2 1.4c-26.4 19.2-64.6 42.2-97.2 42.2z m-98.7-55.5c23.2 17.8 65.1 45.9 98.7 45.9 29.2 0 64.4-20.8 89.5-38.9v-51.9c-25-18.1-60.2-39-89.5-39-33.5 0-75.5 28.1-98.7 45.9v38z" fill="#E24242" p-id="1402"></path></svg>